%FSLAX25Y25*%
%MOIN*%
G70*
G01*
G75*
G04 Layer_Physical_Order=1*
G04 Layer_Color=255*
%ADD10O,0.08661X0.02362*%
%ADD11C,0.02000*%
%ADD12C,0.05000*%
%ADD13C,0.04000*%
%ADD14C,0.06000*%
%ADD15C,0.03000*%
%ADD16R,0.30000X0.12500*%
%ADD17R,0.07087X0.07087*%
%ADD18C,0.07087*%
%ADD19C,0.05906*%
%ADD20R,0.05906X0.05906*%
%ADD21O,0.07874X0.03937*%
%ADD22O,0.07874X0.03937*%
%ADD23C,0.05512*%
%ADD24C,0.04724*%
%ADD25C,0.07000*%
%ADD26R,0.05906X0.05906*%
%ADD27R,0.05906X0.05906*%
%ADD28C,0.05906*%
%ADD29R,0.07874X0.07874*%
%ADD30C,0.07874*%
%ADD31C,0.06000*%
%ADD32C,0.05000*%
D10*
X1036950Y438000D02*
D03*
Y433000D02*
D03*
Y428000D02*
D03*
Y423000D02*
D03*
X1018052Y438000D02*
D03*
Y433000D02*
D03*
Y428000D02*
D03*
Y423000D02*
D03*
D11*
X1045410Y627500D02*
X1028501D01*
X1029001Y628000D02*
X1028501Y627500D01*
X1029001Y628000D02*
Y647000D01*
X1009001Y630228D02*
X1005501Y626728D01*
X1009001Y630228D02*
Y647000D01*
X1020477Y662500D02*
X1019001Y663976D01*
Y647000D02*
Y663976D01*
X1144001Y451500D02*
Y461500D01*
Y435000D02*
Y451500D01*
X1113501Y434500D02*
X1112533Y435468D01*
X1096033D01*
X1096001Y435500D01*
X1095501Y405000D02*
Y430000D01*
X1062501Y402000D02*
Y420500D01*
X1055001Y428000D01*
X1036950D01*
X1096001Y440500D02*
X1085001D01*
X1081501Y437000D01*
X1011501Y444551D02*
Y482000D01*
X1018052Y438000D02*
X1011501Y444551D01*
X1038001Y357500D02*
Y377500D01*
Y357500D02*
X1035501Y355000D01*
X1024501Y379024D02*
X1018977D01*
X993501Y404500D01*
X1007977Y362500D02*
X945001D01*
X1024501Y379024D02*
X1007977Y362500D01*
X945001Y352500D02*
Y362500D01*
X1051501Y437000D02*
Y456000D01*
X1059001Y463500D02*
X1051501Y456000D01*
X1029001Y445949D02*
Y463500D01*
X1036950Y438000D02*
X1029001Y445949D01*
X1051501Y437000D02*
X1047501Y433000D01*
X1036950D01*
Y438000D02*
Y451449D01*
X1073001Y457083D02*
X1061222Y468862D01*
X1054363D02*
X1036950Y451449D01*
X1061222Y468862D02*
X1054363D01*
X1073001Y425500D02*
Y457083D01*
X1091001Y425500D02*
X1073001D01*
X1096001Y430500D02*
X1095501Y430000D01*
X1091001Y425500D01*
X1038001Y407500D02*
X1025025D01*
X1024501Y406976D01*
X1000020D01*
X997528Y409469D01*
X993532D01*
X993501Y409500D01*
X1036950Y423000D02*
X1028450Y414500D01*
X993501D01*
X1025001Y428000D02*
X1018052D01*
X1030001Y433000D02*
X1025001Y428000D01*
X1036950Y433000D02*
X1030001D01*
X1018052D02*
X996501D01*
X993501Y414500D02*
X970501D01*
X959001Y403000D01*
X957501Y376500D02*
Y389000D01*
X959001Y390500D02*
X957501Y389000D01*
X959001Y390500D02*
Y403000D01*
X928501Y395000D02*
X876001D01*
X892001Y407500D02*
X857001D01*
X892001D02*
Y439500D01*
X891501Y440000D01*
X934001D02*
X921501D01*
X938001Y444000D02*
X934001Y440000D01*
X966501Y433000D02*
X959001D01*
X978052Y444551D02*
X966501Y433000D01*
X1011501Y444551D02*
X978052D01*
X938001Y454000D02*
X924001D01*
X921001Y457000D01*
X891001D02*
X885001D01*
X873001Y445000D01*
X856501D01*
Y450000D02*
X841501D01*
X836501Y445000D01*
X820501D01*
X857001Y412500D02*
Y439500D01*
X856501Y440000D01*
X820501D01*
X857001Y402500D02*
X812996D01*
X812527Y402969D01*
X808533D01*
X868501Y402500D02*
X857001D01*
X876001Y395000D02*
X868501Y402500D01*
X944001Y376500D02*
X927501D01*
X951001Y383500D02*
X944001Y376500D01*
X883361Y440000D02*
X856501D01*
X889117Y445756D02*
X883361Y440000D01*
X901757Y445756D02*
X889117D01*
X935001Y392140D02*
Y412512D01*
Y392140D02*
X921745Y378884D01*
Y370744D02*
Y378884D01*
X922001Y370488D02*
X921745Y370744D01*
X922001Y352500D02*
Y370488D01*
X945001Y352500D02*
X922001D01*
X1019001Y663976D02*
X1015477Y667500D01*
X955501D02*
X791001D01*
X808501Y398000D02*
X807501Y397000D01*
X930501Y497500D02*
X920501D01*
X1011501Y512000D02*
X1006501Y517000D01*
Y530000D01*
X1096001Y440500D02*
Y487500D01*
X1095001Y488500D01*
X1068001D01*
X1038001D02*
X1018001D01*
X1011501Y482000D01*
X1048501Y483000D02*
X1029001Y463500D01*
X1048501Y483000D02*
Y497500D01*
X1150001Y599000D02*
X1048501Y497500D01*
X1150001Y599000D02*
Y672000D01*
X1140501Y681500D01*
X1119001D01*
X1100001Y662500D01*
X1020477D01*
X1005501Y626728D02*
X966273D01*
X955501Y637500D01*
X1006501Y600000D02*
Y625728D01*
X1005501Y626728D01*
X1036501Y600000D02*
X1006501D01*
X1069501Y578500D02*
X1038001D01*
X1036501Y580000D01*
X1006001Y549500D02*
X976001D01*
X1006501Y550000D02*
X1006001Y549500D01*
X970501Y497500D02*
Y527500D01*
Y474500D02*
Y497500D01*
X950501D02*
X940501D01*
X960501D02*
X930501Y527500D01*
X1036501Y560000D02*
X1006501D01*
Y570000D01*
X1036501D02*
X1006501D01*
X955501Y637500D02*
X946001Y628000D01*
X840001Y527500D02*
X808501D01*
X820501Y450000D02*
Y496500D01*
X808501Y408000D02*
Y483000D01*
X910501Y527500D02*
Y541000D01*
X900001Y528000D02*
Y542500D01*
X900501Y527500D02*
X840001D01*
X912001Y572500D02*
X900001D01*
X936001D02*
X912001D01*
Y542500D02*
Y549000D01*
X908501Y552500D01*
X908001Y552000D02*
X820501D01*
X908501Y552500D02*
X908001Y552000D01*
X940501Y527500D02*
Y540000D01*
X1006501Y590000D02*
X943501D01*
X951001Y383500D02*
Y465000D01*
X950501Y474500D02*
Y497500D01*
X970501Y474500D02*
X950501D01*
X960501Y480500D02*
Y497500D01*
X936001Y628000D02*
X782001D01*
X946001D02*
X936001D01*
Y547500D02*
Y572500D01*
Y628000D01*
X1095501Y394000D02*
X1094501D01*
X1096001Y359500D02*
Y394500D01*
X1095501Y394000D01*
X1066001Y359500D02*
Y398500D01*
X1062501Y402000D01*
X1066001Y339500D02*
Y359500D01*
Y339500D02*
X793001D01*
X920501Y527500D02*
Y560500D01*
X793001D01*
X1049592Y530000D02*
X1048501D01*
X917513Y430000D02*
X910001D01*
X935001Y412512D02*
X917513Y430000D01*
X901757Y445756D01*
X964501Y561000D02*
X963001D01*
X973001Y667500D02*
Y679500D01*
X1015477Y667500D02*
X973001D01*
X955501D01*
X1011501Y482000D02*
X1005001Y475500D01*
X970501D01*
Y497500D01*
X1004501Y498000D02*
X991001Y484500D01*
X1021501Y498000D02*
X1004501D01*
X1022001Y498500D02*
X1021501Y498000D01*
X1022001Y498500D02*
Y540500D01*
X1036001D02*
X1022001D01*
X1036501Y540000D02*
X1036001Y540500D01*
X970501Y527500D02*
Y549500D01*
X976001D02*
X974501Y551000D01*
Y551157D01*
X972158Y553500D01*
X972001D01*
X964501Y561000D01*
X946501Y547500D02*
X936001D01*
X946501D02*
Y549000D01*
X947001Y549500D02*
X946501Y549000D01*
X970501Y549500D02*
X947001D01*
X960501Y527500D02*
Y538500D01*
X1006501Y540000D02*
X995501D01*
X951001Y465000D02*
X948501Y467500D01*
X874001D02*
X856501Y450000D01*
X948501Y467500D02*
X874001D01*
X903501Y474500D02*
Y478000D01*
X920501Y477500D02*
Y497500D01*
Y477500D02*
X900501D01*
Y497500D01*
X910501Y487500D02*
Y497500D01*
X995501Y501500D02*
X981501Y487500D01*
X995501Y501500D02*
Y540000D01*
X1006501Y570000D02*
X982001D01*
Y679500D02*
X973001D01*
X963001Y571000D02*
Y580000D01*
X1006501D02*
X963001D01*
X950501Y527500D02*
Y539000D01*
X992501Y611500D02*
X950501D01*
X1055001Y590500D02*
Y611500D01*
Y590500D02*
X1037001D01*
X922001Y352500D02*
X808501D01*
Y398000D01*
Y352500D02*
X773001Y388000D01*
Y649500D01*
X791001Y667500D02*
X773001Y649500D01*
X910001Y430000D02*
X903501Y423500D01*
D12*
X1138501Y654500D02*
X1128501D01*
X1122001D01*
X1100001Y632500D01*
X1091592D01*
X1086592Y627500D01*
Y567000D02*
X1049592Y530000D01*
D13*
X1035501Y325000D02*
X782001D01*
X1069501Y569500D02*
X1063001D01*
Y560250D02*
X1052751Y550000D01*
X1063001Y560250D02*
Y569500D01*
D14*
X1086592Y567000D02*
Y627500D01*
X1048501Y530000D02*
X1036501D01*
D15*
X1052751Y550000D02*
X1036501D01*
D16*
X1046501Y527750D02*
D03*
D17*
X1029001Y647000D02*
D03*
D18*
X1019001D02*
D03*
X1009001D02*
D03*
D19*
X1024501Y379024D02*
D03*
X945001Y362500D02*
D03*
X938001Y454000D02*
D03*
X963001Y571500D02*
D03*
X1144001Y461500D02*
D03*
X1069501Y570000D02*
D03*
X1036501Y590000D02*
D03*
Y580000D02*
D03*
Y570000D02*
D03*
Y560000D02*
D03*
Y550000D02*
D03*
Y540000D02*
D03*
Y530000D02*
D03*
X1006501Y600000D02*
D03*
Y590000D02*
D03*
Y580000D02*
D03*
Y570000D02*
D03*
Y560000D02*
D03*
Y550000D02*
D03*
Y540000D02*
D03*
Y530000D02*
D03*
X1138501Y654500D02*
D03*
D20*
X1024501Y406976D02*
D03*
X945001Y352500D02*
D03*
X938001Y444000D02*
D03*
X963001Y561500D02*
D03*
X1144001Y451500D02*
D03*
X1069501Y580000D02*
D03*
D21*
X993501Y404500D02*
D03*
Y414500D02*
D03*
X857001Y412500D02*
D03*
Y402500D02*
D03*
X808501Y398000D02*
D03*
Y408000D02*
D03*
X856501Y440000D02*
D03*
Y450000D02*
D03*
X820501Y440000D02*
D03*
Y450000D02*
D03*
X1096001Y430500D02*
D03*
Y440500D02*
D03*
D22*
X993501Y409500D02*
D03*
X857001Y407500D02*
D03*
X808501Y403000D02*
D03*
X856501Y445000D02*
D03*
X820501D02*
D03*
X1096001Y435500D02*
D03*
D23*
X1038001Y377500D02*
D03*
Y407500D02*
D03*
X891501Y440000D02*
D03*
X921501D02*
D03*
X958501Y395000D02*
D03*
X928501D02*
D03*
X957501Y376500D02*
D03*
X927501D02*
D03*
X891001Y457000D02*
D03*
X921001D02*
D03*
X1011501Y482000D02*
D03*
Y512000D02*
D03*
X1113501Y434500D02*
D03*
X1143501D02*
D03*
X959001Y433000D02*
D03*
Y403000D02*
D03*
X1051501Y437000D02*
D03*
X1081501D02*
D03*
X1068001Y488500D02*
D03*
X1038001D02*
D03*
X996501Y433000D02*
D03*
X966501D02*
D03*
X900001Y572500D02*
D03*
Y542500D02*
D03*
X912001Y572500D02*
D03*
Y542500D02*
D03*
X1066001Y359500D02*
D03*
X1096001D02*
D03*
D24*
X1035501Y325000D02*
D03*
Y355000D02*
D03*
X1059001Y463500D02*
D03*
X1029001D02*
D03*
X955501Y637500D02*
D03*
Y667500D02*
D03*
X1100001Y632500D02*
D03*
Y662500D02*
D03*
D25*
X1095501Y405000D02*
D03*
Y395000D02*
D03*
D26*
X1036501Y600000D02*
D03*
X1128501Y654500D02*
D03*
D27*
X970501Y497500D02*
D03*
D28*
X960501D02*
D03*
X950501D02*
D03*
X940501D02*
D03*
X930501D02*
D03*
X920501D02*
D03*
X910501D02*
D03*
X900501D02*
D03*
X970501Y527500D02*
D03*
X960501D02*
D03*
X950501D02*
D03*
X940501D02*
D03*
X930501D02*
D03*
X920501D02*
D03*
X910501D02*
D03*
X900501D02*
D03*
D29*
X1045410Y627500D02*
D03*
D30*
X1086592D02*
D03*
D31*
X808501Y483000D02*
D03*
X820501Y552000D02*
D03*
D32*
X808501Y527500D02*
D03*
X820501Y496500D02*
D03*
X943501Y590000D02*
D03*
X940501Y540000D02*
D03*
X782001Y325000D02*
D03*
Y628000D02*
D03*
X793001Y339500D02*
D03*
X793001Y560500D02*
D03*
X960501Y480500D02*
D03*
X903501Y423500D02*
D03*
X991001Y484500D02*
D03*
X960501Y538500D02*
D03*
X995501Y540000D02*
D03*
X903501Y474500D02*
D03*
X910501Y487500D02*
D03*
X981501D02*
D03*
X982001Y570000D02*
D03*
Y679500D02*
D03*
X950501Y539000D02*
D03*
Y611500D02*
D03*
X992501D02*
D03*
X1055001D02*
D03*
M02*
